<svg width="28" height="40" viewBox="0 0 28 40" fill="none" xmlns="http://www.w3.org/2000/svg">
<path d="M14 19C12.6739 19 11.4021 18.4732 10.4645 17.5355C9.52678 16.5979 9 15.3261 9 14C9 12.6739 9.52678 11.4021 10.4645 10.4645C11.4021 9.52678 12.6739 9 14 9C15.3261 9 16.5979 9.52678 17.5355 10.4645C18.4732 11.4021 19 12.6739 19 14C19 14.6566 18.8707 15.3068 18.6194 15.9134C18.3681 16.52 17.9998 17.0712 17.5355 17.5355C17.0712 17.9998 16.52 18.3681 15.9134 18.6194C15.3068 18.8707 14.6566 19 14 19ZM14 0C10.287 0 6.72601 1.475 4.1005 4.1005C1.475 6.72601 0 10.287 0 14C0 24.5 14 40 14 40C14 40 28 24.5 28 14C28 10.287 26.525 6.72601 23.8995 4.1005C21.274 1.475 17.713 0 14 0Z" fill="white"/>
</svg>

